<svg xmlns="http://www.w3.org/2000/svg" viewBox="0 0 740 360" width="740" height="360">
  <defs>
    <linearGradient id="bg1" x1="0" y1="0" x2="1" y2="1">
      <stop offset="0%" stop-color="#0f172a"/>
      <stop offset="100%" stop-color="#1e1b4b"/>
    </linearGradient>
    <linearGradient id="ac1" x1="0" y1="0" x2="1" y2="0">
      <stop offset="0%" stop-color="#60a5fa"/>
      <stop offset="100%" stop-color="#a78bfa"/>
    </linearGradient>
  </defs>
  <rect width="740" height="360" fill="url(#bg1)"/>
  <circle cx="560" cy="100" r="160" fill="rgba(96,165,250,0.04)"/>
  <circle cx="180" cy="300" r="120" fill="rgba(167,139,250,0.04)"/>
  <!-- 网络节点图 -->
  <circle cx="120" cy="160" r="6" fill="#60a5fa" opacity="0.8"/>
  <circle cx="220" cy="120" r="5" fill="#a78bfa" opacity="0.7"/>
  <circle cx="320" cy="160" r="6" fill="#f472b6" opacity="0.8"/>
  <circle cx="370" cy="240" r="5" fill="#60a5fa" opacity="0.7"/>
  <circle cx="470" cy="140" r="6" fill="#a78bfa" opacity="0.8"/>
  <circle cx="570" cy="200" r="5" fill="#f472b6" opacity="0.7"/>
  <circle cx="620" cy="130" r="4" fill="#22c55e" opacity="0.6"/>
  <circle cx="260" cy="220" r="4" fill="#f59e0b" opacity="0.6"/>
  <circle cx="520" cy="260" r="4" fill="#60a5fa" opacity="0.6"/>
  <!-- 连线 -->
  <line x1="120" y1="160" x2="220" y2="120" stroke="rgba(96,165,250,0.2)" stroke-width="1.5"/>
  <line x1="220" y1="120" x2="320" y2="160" stroke="rgba(167,139,250,0.2)" stroke-width="1.5"/>
  <line x1="320" y1="160" x2="470" y2="140" stroke="rgba(244,114,182,0.2)" stroke-width="1.5"/>
  <line x1="470" y1="140" x2="570" y2="200" stroke="rgba(96,165,250,0.2)" stroke-width="1.5"/>
  <line x1="570" y1="200" x2="620" y2="130" stroke="rgba(167,139,250,0.2)" stroke-width="1.5"/>
  <line x1="320" y1="160" x2="370" y2="240" stroke="rgba(244,114,182,0.2)" stroke-width="1.5"/>
  <line x1="120" y1="160" x2="260" y2="220" stroke="rgba(96,165,250,0.2)" stroke-width="1.5"/>
  <line x1="260" y1="220" x2="370" y2="240" stroke="rgba(167,139,250,0.2)" stroke-width="1.5"/>
  <line x1="370" y1="240" x2="520" y2="260" stroke="rgba(244,114,182,0.2)" stroke-width="1.5"/>
  <!-- 节点标签 -->
  <text x="120" y="180" text-anchor="middle" fill="#64748b" font-size="7" font-family="monospace">感知</text>
  <text x="320" y="150" text-anchor="middle" fill="#64748b" font-size="7" font-family="monospace">推理</text>
  <text x="470" y="130" text-anchor="middle" fill="#64748b" font-size="7" font-family="monospace">记忆</text>
  <text x="570" y="190" text-anchor="middle" fill="#64748b" font-size="7" font-family="monospace">行动</text>
  <!-- 思维链流水线 -->
  <rect x="80" y="255" width="580" height="50" rx="10" fill="rgba(96,165,250,0.06)" stroke="rgba(96,165,250,0.15)" stroke-width="1"/>
  <rect x="100" y="265" width="100" height="30" rx="6" fill="rgba(96,165,250,0.12)" stroke="rgba(96,165,250,0.3)" stroke-width="1"/>
  <text x="150" y="284" text-anchor="middle" fill="#60a5fa" font-size="10" font-family="sans-serif">理解</text>
  <line x1="210" y1="280" x2="230" y2="280" stroke="#334155" stroke-width="1.5"/>
  <rect x="240" y="265" width="100" height="30" rx="6" fill="rgba(167,139,250,0.12)" stroke="rgba(167,139,250,0.3)" stroke-width="1"/>
  <text x="290" y="284" text-anchor="middle" fill="#a78bfa" font-size="10" font-family="sans-serif">规划</text>
  <line x1="350" y1="280" x2="370" y2="280" stroke="#334155" stroke-width="1.5"/>
  <rect x="380" y="265" width="100" height="30" rx="6" fill="rgba(244,114,182,0.12)" stroke="rgba(244,114,182,0.3)" stroke-width="1"/>
  <text x="430" y="284" text-anchor="middle" fill="#f472b6" font-size="10" font-family="sans-serif">执行</text>
  <line x1="490" y1="280" x2="510" y2="280" stroke="#334155" stroke-width="1.5"/>
  <rect x="520" y="265" width="100" height="30" rx="6" fill="rgba(34,197,94,0.12)" stroke="rgba(34,197,94,0.3)" stroke-width="1"/>
  <text x="570" y="284" text-anchor="middle" fill="#22c55e" font-size="10" font-family="sans-serif">反馈</text>
  <!-- 标题 -->
  <text x="60" y="46" fill="url(#ac1)" font-size="14" font-family="sans-serif" font-weight="bold" letter-spacing="1">AI 智能体 (Agent) 入门</text>
</svg>