<svg xmlns="http://www.w3.org/2000/svg" viewBox="0 0 740 360">
  <defs>
    <linearGradient id="aa" x1="0" y1="0" x2="1" y2="1">
      <stop offset="0%" stop-color="#0f172a"/><stop offset="100%" stop-color="#1a1a2e"/>
    </linearGradient>
  </defs>
  <rect fill="url(#aa)" width="740" height="360"/>
  <text x="370" y="60" text-anchor="middle" font-size="26" font-weight="700" fill="#fff">🧪 我们在做什么</text>
  <text x="370" y="90" text-anchor="middle" font-size="13" fill="#94a3b8">课余时间 · 动手实践 · 持续学习</text>
  <g transform="translate(60,130)">
    <rect x="0" y="0" width="190" height="200" rx="16" fill="rgba(255,255,255,0.03)" stroke="rgba(255,255,255,0.08)"/>
    <text x="95" y="40" text-anchor="middle" font-size="28">🤖</text>
    <text x="95" y="70" text-anchor="middle" font-size="14" font-weight="600" fill="#e2e8f0">大模型 & Agent</text>
    <text x="95" y="95" text-anchor="middle" font-size="11" fill="#94a3b8">API 调用 · 智能体</text>
    <text x="95" y="115" text-anchor="middle" font-size="11" fill="#94a3b8">RAG 知识库</text>
    <line x1="20" y1="135" x2="170" y2="135" stroke="rgba(255,255,255,0.05)"/>
    <text x="95" y="160" text-anchor="middle" font-size="11" fill="#64748b">LangChain · Prompt</text>
    <text x="95" y="180" text-anchor="middle" font-size="11" fill="#64748b">Function Calling</text>
  </g>
  <g transform="translate(275,130)">
    <rect x="0" y="0" width="190" height="200" rx="16" fill="rgba(255,255,255,0.03)" stroke="rgba(255,255,255,0.08)"/>
    <text x="95" y="40" text-anchor="middle" font-size="28">📊</text>
    <text x="95" y="70" text-anchor="middle" font-size="14" font-weight="600" fill="#e2e8f0">数据分析</text>
    <text x="95" y="95" text-anchor="middle" font-size="11" fill="#94a3b8">Python · Pandas</text>
    <text x="95" y="115" text-anchor="middle" font-size="11" fill="#94a3b8">数据可视化</text>
    <line x1="20" y1="135" x2="170" y2="135" stroke="rgba(255,255,255,0.05)"/>
    <text x="95" y="160" text-anchor="middle" font-size="11" fill="#64748b">Scikit-learn</text>
    <text x="95" y="180" text-anchor="middle" font-size="11" fill="#64748b">机器学习</text>
  </g>
  <g transform="translate(490,130)">
    <rect x="0" y="0" width="190" height="200" rx="16" fill="rgba(255,255,255,0.03)" stroke="rgba(255,255,255,0.08)"/>
    <text x="95" y="40" text-anchor="middle" font-size="28">⚙️</text>
    <text x="95" y="70" text-anchor="middle" font-size="14" font-weight="600" fill="#e2e8f0">服务器 & 部署</text>
    <text x="95" y="95" text-anchor="middle" font-size="11" fill="#94a3b8">Docker · Nginx</text>
    <text x="95" y="115" text-anchor="middle" font-size="11" fill="#94a3b8">Linux · Git</text>
    <line x1="20" y1="135" x2="170" y2="135" stroke="rgba(255,255,255,0.05)"/>
    <text x="95" y="160" text-anchor="middle" font-size="11" fill="#64748b">MySQL · Redis</text>
    <text x="95" y="180" text-anchor="middle" font-size="11" fill="#64748b">云服务运维</text>
  </g>
</svg>